<svg width="29" height="29" viewBox="0 0 29 29" fill="none" xmlns="http://www.w3.org/2000/svg">
<path d="M0.430908 28.4664C0.634121 27.7326 0.820399 27.0383 0.995387 26.344C1.43568 24.7352 1.87032 23.1264 2.3219 21.5177C2.35136 21.4239 2.36007 21.3248 2.34739 21.2274C2.33472 21.1299 2.30097 21.0363 2.24851 20.9532C0.908865 18.5754 0.318614 15.8484 0.555077 13.1295C0.767707 10.2623 1.86792 7.53253 3.70291 5.31921C5.5379 3.1059 8.01659 1.51894 10.7947 0.778732C12.9935 0.125759 15.3227 0.0453995 17.5613 0.545278C19.7999 1.04516 21.8737 2.10869 23.5858 3.63499C26.0517 5.66765 27.7012 8.52183 28.2315 11.6732C28.7131 14.2429 28.4642 16.8961 27.5133 19.3314C26.5623 21.7668 24.9473 23.8866 22.8519 25.4499C20.7564 27.0133 18.2644 27.9576 15.6591 28.1755C13.0538 28.3934 10.4395 27.8762 8.11346 26.6827C8.01361 26.6275 7.90364 26.593 7.79015 26.5814C7.67666 26.5697 7.56196 26.5811 7.45299 26.6149L0.679246 28.3987C0.59776 28.4258 0.514877 28.4484 0.430908 28.4664ZM3.81778 25.1416L3.9702 25.1021C5.27415 24.7634 6.5837 24.4304 7.882 24.0804C7.98644 24.0469 8.09716 24.0377 8.20572 24.0533C8.31428 24.0689 8.4179 24.1091 8.50863 24.1707C10.9726 25.703 13.9309 26.2304 16.7725 25.644C19.7283 25.0384 22.3322 23.3061 24.0329 20.8139C25.7336 18.3217 26.3973 15.2655 25.8837 12.2924C25.3701 9.31927 23.7194 6.66285 21.2812 4.88569C18.843 3.10853 15.8088 2.35022 12.8212 2.77134C10.2089 3.1384 7.81009 4.41578 6.04744 6.37835C4.89769 7.59507 4.03085 9.05069 3.50881 10.6412C2.98676 12.2318 2.82241 13.918 3.0275 15.5794C3.21682 17.3872 3.84462 19.1214 4.8564 20.6314C4.90882 20.705 4.94286 20.79 4.95563 20.8793C4.9684 20.9687 4.95953 21.0599 4.92979 21.1451C4.50078 22.4604 4.1452 23.7925 3.767 25.1416H3.81778Z" fill="white"/>
<path d="M7.36841 11.1036C7.37333 10.5525 7.49103 10.0082 7.71432 9.50439C7.9376 9.00054 8.26171 8.54775 8.66667 8.17394C8.78735 8.05153 8.93166 7.95492 9.09079 7.88991C9.24991 7.8249 9.42055 7.79286 9.59242 7.79575C9.80677 7.80703 10.0216 7.80703 10.2359 7.79575C10.3832 7.77767 10.5323 7.81106 10.6578 7.89027C10.7833 7.96948 10.8775 8.08964 10.9246 8.23039C11.3367 9.19565 11.7487 10.1553 12.1269 11.1262C12.1506 11.2212 12.1553 11.32 12.1408 11.4168C12.1262 11.5137 12.0928 11.6067 12.0422 11.6906C11.7741 12.0994 11.4839 12.4932 11.173 12.8704C11.0895 12.9634 11.0392 13.0814 11.03 13.2061C11.0208 13.3307 11.0532 13.4548 11.1221 13.5591C12.2093 15.4406 13.903 16.8974 15.9259 17.6911C16.0452 17.7497 16.1815 17.7643 16.3106 17.7323C16.4397 17.7002 16.5533 17.6237 16.6315 17.5161C16.9701 17.0871 17.3202 16.6693 17.6588 16.2347C17.9185 15.9073 18.054 15.8339 18.4378 16.0089C19.4144 16.4548 20.3796 16.9347 21.3449 17.3919C21.4289 17.4337 21.4976 17.5009 21.5412 17.584C21.5847 17.6671 21.601 17.7619 21.5876 17.8548C21.5481 19.3224 21.1247 20.0336 19.5498 20.7054C18.6425 21.0495 17.6427 21.0615 16.7274 20.7392C13.4252 19.8135 10.9754 17.7532 9.00534 15.0267C8.31308 14.1639 7.80414 13.169 7.50953 12.1027C7.44744 11.7866 7.41921 11.4423 7.36841 11.1036Z" fill="white"/>
</svg>
